<?xml version="1.0" encoding="utf-8"?>
<!-- Generator: Adobe Illustrator 26.1.0, SVG Export Plug-In . SVG Version: 6.00 Build 0)  -->
<svg version="1.1" id="Capa_1" xmlns="http://www.w3.org/2000/svg" xmlns:xlink="http://www.w3.org/1999/xlink" x="0px" y="0px"
	 viewBox="0 0 350 109" style="enable-background:new 0 0 350 109;" xml:space="preserve">
<style type="text/css">
	.st0{fill:#FFA859;}
	.st1{fill:#FFFFFF;}
</style>
<g>
	<path class="st0" d="M165.4,46c-3.5,0-6.7,2.1-6.7,6.8v15.6h-6.9V40.3h6.9V44c1-1.4,2.4-2.5,4-3.3c1.6-0.8,3.3-1.2,5-1.2
		c6.1,0,10.3,4.1,10.3,11.7v17.1h-6.9V52.8C171.1,48.1,168.7,46,165.4,46z"/>
	<path class="st0" d="M123.9,29h-6.7V0.3h28.7V7h-22V29z M196.9,0.3V7h22v22h6.7V0.3H196.9z M218.9,102h-22v6.7h28.7V80h-6.7V102z
		 M123.9,80h-6.7v28.7h28.7V102h-22V80z M139,68.4h6.9V40.3H139V68.4z M197,69c-7.5,0-14.9-5.1-14.9-14.8c0-9.7,7.4-14.8,14.9-14.8
		c2.8,0,5.5,0.7,7.9,2.1v-1.1h7.1v28.1c0,4-1.6,7.8-4.4,10.6c-2.8,2.8-6.6,4.4-10.6,4.4v-7.1c2.1,0,4.1-0.8,5.6-2.3
		c1.5-1.5,2.3-3.5,2.3-5.6v-1.5C202.6,68.3,199.8,69,197,69z M197,62.5c4.5,0,7.7-3,7.7-8.3c0-5.3-3.2-8.4-7.7-8.4s-7.7,3-7.7,8.4
		C189.3,59.5,192.5,62.5,197,62.5z"/>
	<path class="st1" d="M225.4,51.6c0.7,0.8,1,1.8,1,2.8c0,0.5-0.1,1.1-0.3,1.6c-0.2,0.5-0.5,1-0.9,1.4c-0.4,0.4-0.9,0.7-1.4,0.9
		c-0.5,0.2-1.1,0.3-1.6,0.3c-1,0-2-0.3-2.7-1c-0.8-0.7-1.2-1.6-1.3-2.6c-0.1-0.6,0-1.3,0.2-1.9c0.2-0.6,0.5-1.1,1-1.6s1-0.8,1.6-1
		c0.6-0.2,1.2-0.3,1.8-0.2C223.8,50.3,224.7,50.8,225.4,51.6z M28.7,39.5c-1.7,0-3.5,0.4-5,1.2c-1.6,0.8-2.9,1.9-4,3.3v-3.7h-6.9
		v28.1h6.9V52.8c0-4.7,3.2-6.8,6.7-6.8c3.3,0,5.7,2.1,5.7,6.8v15.6H39V51.2C39,43.6,34.8,39.5,28.7,39.5z M60.2,39.5
		c-1.7,0-3.5,0.4-5,1.2s-2.9,1.9-4,3.3v-3.7h-6.9v28.1h6.9V52.8c0-4.7,3.2-6.8,6.7-6.8c3.4,0,5.7,2.1,5.7,6.8v15.6h6.9V51.2
		C70.6,43.6,66.4,39.5,60.2,39.5z M104.8,54.3c0,9.7-7.4,14.8-14.9,14.8S74.9,64,74.9,54.3c0-9.7,7.4-14.8,14.9-14.8
		C97.5,39.5,104.8,44.6,104.8,54.3z M97.6,54.3c0-5.3-3.2-8.4-7.7-8.4c-4.4,0-7.7,3-7.7,8.4c0,5.3,3.2,8.3,7.7,8.3
		C94.3,62.6,97.6,59.6,97.6,54.3z M120.5,60.4l-7.1-20.1h-7.3l10.4,28.1h7.9l10.4-28.1h-7.1L120.5,60.4z M0,68.4h6.9V40.3H0V68.4z
		 M284.9,43.7c2.8,2.8,4.4,6.6,4.4,10.5c0,3.9-1.6,7.7-4.4,10.5c-2.8,2.8-6.6,4.4-10.5,4.4c-3.9,0-7.7-1.6-10.5-4.3
		c-2.8-2.8-4.4-6.6-4.4-10.5c0-3.9,1.6-7.7,4.4-10.5c2.8-2.8,6.6-4.4,10.5-4.4C278.4,39.4,282.2,40.9,284.9,43.7z M282.6,54.2
		c0-2.2-0.9-4.2-2.4-5.8c-1.5-1.5-3.6-2.4-5.8-2.4c-1.1,0-2.1,0.2-3.1,0.6c-1,0.4-1.9,1-2.6,1.8c-0.8,0.8-1.4,1.7-1.8,2.6
		c-0.4,1-0.6,2-0.6,3.1c0,2.2,0.9,4.2,2.4,5.8c1.5,1.5,3.6,2.4,5.8,2.4c2.2,0,4.2-0.9,5.8-2.4C281.7,58.4,282.6,56.4,282.6,54.2z
		 M250.1,59.3c2.5-2.3,5.5-5.6,5.5-9.9c0-6.2-4.6-10.1-10.8-10.1c-5.9,0-10.9,3.7-11.6,10.9h6.8c0.5-3.2,2.5-4.8,4.9-4.8
		c2.4,0,4.1,1.7,4.1,4.4c0,1.8-0.9,3.5-2.7,5L232,68.3h24v-5.8h-9.7L250.1,59.3z M311.8,57.7c1.4-0.9,2.6-2.1,3.4-3.5
		c0.8-1.5,1.2-3.1,1.1-4.8c0-6.3-4.9-10.1-11.5-10.1c-5.8,0-11.3,3.5-12.1,10.5h6.7c0.2-1.3,0.8-2.4,1.8-3.2c1-0.8,2.2-1.2,3.5-1.2
		c3,0,4.8,2,4.8,4.8s-1.7,4.8-4.8,4.8h-2.2v5.9h2.3c3,0,5.3,2.1,5.3,5.2c0,3.3-2.3,5.2-5.3,5.2c-2.5,0-5.2-1.2-6.1-5.3h-6.7
		c0.9,7.9,6.7,11.3,12.8,11.3c6.8,0,12-4,12-10.8C317.1,62,314.9,59.3,311.8,57.7z M350,54.2c0,3.9-1.6,7.7-4.4,10.5
		c-2.8,2.8-6.6,4.3-10.5,4.3c-2,0-3.9-0.4-5.7-1.1c-1.8-0.7-3.4-1.8-4.8-3.2c-1.4-1.4-2.5-3-3.2-4.8c-0.7-1.8-1.1-3.7-1.1-5.7
		c0-3.9,1.6-7.7,4.4-10.5c2.8-2.8,6.6-4.4,10.5-4.4c2,0,3.9,0.4,5.7,1.1c1.8,0.7,3.4,1.8,4.8,3.2c1.4,1.4,2.5,3,3.2,4.8
		C349.6,50.3,350,52.3,350,54.2z M343.3,54.2c0-1.1-0.2-2.1-0.6-3.1c-0.4-1-1-1.9-1.8-2.6c-0.8-0.8-1.7-1.4-2.6-1.8
		c-1-0.4-2-0.6-3.1-0.6c-2.2,0-4.2,0.9-5.8,2.4c-1.5,1.5-2.4,3.6-2.4,5.8c0,2.2,0.9,4.2,2.4,5.8c1.5,1.5,3.6,2.4,5.8,2.4
		s4.2-0.9,5.8-2.4C342.4,58.4,343.3,56.4,343.3,54.2z"/>
</g>
</svg>
